<mxfile host="Electron" agent="Mozilla/5.0 (Macintosh; Intel Mac OS X 10_15_7) AppleWebKit/537.36 (KHTML, like Gecko) draw.io/26.0.16 Chrome/132.0.6834.196 Electron/34.2.0 Safari/537.36" version="26.0.16">
  <diagram name="Page-1" id="_ZqEdXRgNjqhjNOCaQqE">
    <mxGraphModel dx="342" dy="249" grid="1" gridSize="10" guides="1" tooltips="1" connect="1" arrows="1" fold="1" page="0" pageScale="1" pageWidth="400" pageHeight="250" math="0" shadow="0">
      <root>
        <mxCell id="0" />
        <mxCell id="1" parent="0" />
        <mxCell id="BYmvZvrTq6r9-72-5DOs-39" value="Receiver" style="rounded=0;whiteSpace=wrap;html=1;fontFamily=Courier New;strokeWidth=2;fillStyle=solid;verticalAlign=top;" vertex="1" parent="1">
          <mxGeometry x="290" y="58" width="105" height="135" as="geometry" />
        </mxCell>
        <mxCell id="BYmvZvrTq6r9-72-5DOs-1" value="Sender" style="rounded=0;whiteSpace=wrap;html=1;fontFamily=Courier New;strokeWidth=2;fillStyle=solid;verticalAlign=top;" vertex="1" parent="1">
          <mxGeometry x="130" y="60" width="110" height="135" as="geometry" />
        </mxCell>
        <mxCell id="BYmvZvrTq6r9-72-5DOs-12" value="" style="endArrow=blockThin;html=1;rounded=0;endFill=1;" edge="1" parent="1">
          <mxGeometry width="50" height="50" relative="1" as="geometry">
            <mxPoint x="290" y="160" as="sourcePoint" />
            <mxPoint x="240" y="160" as="targetPoint" />
          </mxGeometry>
        </mxCell>
        <mxCell id="BYmvZvrTq6r9-72-5DOs-13" value="&lt;div&gt;y_ready_I&lt;/div&gt;" style="edgeLabel;html=1;align=right;verticalAlign=middle;resizable=0;points=[];labelPosition=left;verticalLabelPosition=middle;fontFamily=Courier New;spacingRight=4;fontSize=10;" vertex="1" connectable="0" parent="BYmvZvrTq6r9-72-5DOs-12">
          <mxGeometry x="-0.574" y="1" relative="1" as="geometry">
            <mxPoint x="-39" y="-1" as="offset" />
          </mxGeometry>
        </mxCell>
        <mxCell id="BYmvZvrTq6r9-72-5DOs-43" value="y_ready_O" style="edgeLabel;html=1;align=left;verticalAlign=middle;resizable=0;points=[];labelPosition=right;verticalLabelPosition=middle;spacingLeft=4;fontFamily=Courier New;" vertex="1" connectable="0" parent="BYmvZvrTq6r9-72-5DOs-12">
          <mxGeometry x="-0.8099" y="-1" relative="1" as="geometry">
            <mxPoint x="5" y="1" as="offset" />
          </mxGeometry>
        </mxCell>
        <mxCell id="BYmvZvrTq6r9-72-5DOs-34" value="" style="endArrow=blockThin;html=1;rounded=0;endFill=1;" edge="1" parent="1">
          <mxGeometry width="50" height="50" relative="1" as="geometry">
            <mxPoint x="240" y="140" as="sourcePoint" />
            <mxPoint x="290" y="140" as="targetPoint" />
          </mxGeometry>
        </mxCell>
        <mxCell id="BYmvZvrTq6r9-72-5DOs-35" value="&lt;div&gt;y_valid_O&lt;/div&gt;" style="edgeLabel;html=1;align=right;verticalAlign=middle;resizable=0;points=[];labelPosition=left;verticalLabelPosition=middle;fontFamily=Courier New;spacingRight=4;fontSize=10;spacingLeft=2;" vertex="1" connectable="0" parent="BYmvZvrTq6r9-72-5DOs-34">
          <mxGeometry x="-0.574" y="1" relative="1" as="geometry">
            <mxPoint x="-11" y="1" as="offset" />
          </mxGeometry>
        </mxCell>
        <mxCell id="BYmvZvrTq6r9-72-5DOs-41" value="y_valid_I" style="edgeLabel;html=1;align=left;verticalAlign=middle;resizable=0;points=[];labelPosition=right;verticalLabelPosition=middle;spacingLeft=4;spacingRight=2;fontFamily=Courier New;" vertex="1" connectable="0" parent="BYmvZvrTq6r9-72-5DOs-34">
          <mxGeometry x="0.2556" y="1" relative="1" as="geometry">
            <mxPoint x="19" y="1" as="offset" />
          </mxGeometry>
        </mxCell>
        <mxCell id="BYmvZvrTq6r9-72-5DOs-36" value="" style="endArrow=blockThin;html=1;rounded=0;endFill=1;" edge="1" parent="1">
          <mxGeometry width="50" height="50" relative="1" as="geometry">
            <mxPoint x="240" y="120" as="sourcePoint" />
            <mxPoint x="290" y="120" as="targetPoint" />
          </mxGeometry>
        </mxCell>
        <mxCell id="BYmvZvrTq6r9-72-5DOs-37" value="&lt;div&gt;y_O&lt;/div&gt;" style="edgeLabel;html=1;align=right;verticalAlign=middle;resizable=0;points=[];labelPosition=left;verticalLabelPosition=middle;fontFamily=Courier New;spacingRight=4;fontSize=10;spacingLeft=2;" vertex="1" connectable="0" parent="BYmvZvrTq6r9-72-5DOs-36">
          <mxGeometry x="-0.574" y="1" relative="1" as="geometry">
            <mxPoint x="-11" y="1" as="offset" />
          </mxGeometry>
        </mxCell>
        <mxCell id="BYmvZvrTq6r9-72-5DOs-40" value="y_I" style="edgeLabel;html=1;align=left;verticalAlign=middle;resizable=0;points=[];labelPosition=right;verticalLabelPosition=middle;spacingRight=2;spacingLeft=4;fontFamily=Courier New;" vertex="1" connectable="0" parent="BYmvZvrTq6r9-72-5DOs-36">
          <mxGeometry x="0.7457" y="2" relative="1" as="geometry">
            <mxPoint x="6" y="2" as="offset" />
          </mxGeometry>
        </mxCell>
        <mxCell id="BYmvZvrTq6r9-72-5DOs-46" value="" style="endArrow=none;html=1;rounded=0;endFill=1;entryX=0;entryY=0.5;entryDx=0;entryDy=0;edgeStyle=orthogonalEdgeStyle;startFill=0;" edge="1" parent="1" target="BYmvZvrTq6r9-72-5DOs-48">
          <mxGeometry width="50" height="50" relative="1" as="geometry">
            <mxPoint x="110" y="220" as="sourcePoint" />
            <mxPoint x="105" y="225" as="targetPoint" />
            <Array as="points">
              <mxPoint x="165" y="220" />
            </Array>
          </mxGeometry>
        </mxCell>
        <mxCell id="BYmvZvrTq6r9-72-5DOs-47" value="clk" style="edgeLabel;html=1;align=right;verticalAlign=middle;resizable=0;points=[];labelPosition=left;verticalLabelPosition=middle;fontFamily=Courier New;spacingRight=2;fontSize=10;" vertex="1" connectable="0" parent="BYmvZvrTq6r9-72-5DOs-46">
          <mxGeometry x="-0.574" y="1" relative="1" as="geometry">
            <mxPoint x="-17" y="1" as="offset" />
          </mxGeometry>
        </mxCell>
        <mxCell id="BYmvZvrTq6r9-72-5DOs-48" value="" style="triangle;whiteSpace=wrap;html=1;rotation=-90;strokeWidth=2;" vertex="1" parent="1">
          <mxGeometry x="160" y="185" width="10" height="10" as="geometry" />
        </mxCell>
        <mxCell id="BYmvZvrTq6r9-72-5DOs-49" value="" style="triangle;whiteSpace=wrap;html=1;rotation=-90;strokeWidth=2;" vertex="1" parent="1">
          <mxGeometry x="360" y="183" width="10" height="10" as="geometry" />
        </mxCell>
        <mxCell id="BYmvZvrTq6r9-72-5DOs-51" value="" style="endArrow=none;html=1;rounded=0;entryX=0;entryY=0.5;entryDx=0;entryDy=0;edgeStyle=orthogonalEdgeStyle;" edge="1" parent="1" target="BYmvZvrTq6r9-72-5DOs-49">
          <mxGeometry width="50" height="50" relative="1" as="geometry">
            <mxPoint x="160" y="220" as="sourcePoint" />
            <mxPoint x="220" y="180" as="targetPoint" />
          </mxGeometry>
        </mxCell>
        <mxCell id="BYmvZvrTq6r9-72-5DOs-53" value="" style="shape=flexArrow;endArrow=classic;html=1;rounded=1;fillColor=#dae8fc;width=6.744186046511628;endSize=2.255813953488372;endWidth=7.501352082206598;entryX=0.095;entryY=0.422;entryDx=0;entryDy=0;entryPerimeter=0;exitX=0.909;exitY=0.407;exitDx=0;exitDy=0;exitPerimeter=0;strokeColor=#6c8ebf;" edge="1" parent="1">
          <mxGeometry width="50" height="50" relative="1" as="geometry">
            <mxPoint x="229.99" y="99.995" as="sourcePoint" />
            <mxPoint x="309.975" y="100.02000000000001" as="targetPoint" />
          </mxGeometry>
        </mxCell>
      </root>
    </mxGraphModel>
  </diagram>
</mxfile>
